<svg xmlns="http://www.w3.org/2000/svg" viewBox="0 0 550 150"><path fill="#9EA2A2" d="M504.967 121.201h3.6v-10.504l9.787-14.611h-4.211l-7.305 11.264-7.484-11.264h-4.209l9.822 14.611v10.504zm-32.457 0h3.6V99.252h7.807v-3.166h-19.213v3.166h7.807v21.949zm-27.957 0h3.598V96.086h-3.598v25.115zm-19.037-24.648c-1.725-.611-3.703-.898-5.359-.898-4.535 0-8.062 2.375-8.062 6.838 0 7.807 10.797 6.258 10.797 11.873 0 2.951-2.877 4.102-4.93 4.102-1.834 0-3.994-.719-5.219-1.221l-.357 3.344c1.656.539 3.383 1.045 5.145 1.045 5.039 0 9.178-2.123 9.178-7.482 0-8.277-10.797-7.162-10.797-11.984 0-2.627 2.375-3.348 4.391-3.348 1.871 0 2.879.324 4.715 1.043l.498-3.312zm-43.465 2.699h3.455c3.311 0 5.039 1.439 5.039 3.707 0 2.41-2.018 3.92-5.436 3.92h-3.059v-7.627zm-3.598 21.949h3.598v-11.154h2.16c1.906 0 3.092 0 4.211 2.447l3.848 8.707h4.102l-4.75-10.002c-.791-1.547-1.328-2.088-2.445-2.518v-.074c2.914-.504 5.182-2.662 5.182-5.723 0-6.008-4.785-6.799-9.752-6.799h-6.152v25.116zm-32.564 0h14.068v-3.166h-10.469v-8.275h9.535v-3.166h-9.535v-7.342h10.469v-3.166h-14.068v25.115zm-15.114-25.115h-3.777l-7.953 21.949h-.072l-7.734-21.949h-4.031l9.463 25.115h4.5l9.604-25.115zm-43.539 25.115h3.598V96.086h-3.598v25.115zm-38.967 0h3.599v-20.652h.072l11.37 20.652h4.606V96.086h-3.598v20.223h-.071l-11.084-20.223h-4.893v25.115zm-19.358-25.115h-3.599v14.25c0 4.822-1.511 8.131-6.153 8.131-4.642 0-6.154-3.309-6.154-8.131v-14.25h-3.599v14.717c0 7.055 3.563 10.832 9.752 10.832s9.751-3.777 9.751-10.832V96.086z"/><path fill="#0C2340" d="M494.949 31.854h4.221c8.357 0 12.75 4.479 12.75 11.284 0 8.872-4.48 12.75-16.971 12.576v-23.86zm46.26 47.55c-4.652-.086-8.27-.947-12.061-4.738-5.512-5.512-8.701-13.007-14.213-17.314 8.098-2.67 12.318-7.493 12.318-14.042 0-13.266-12.578-15.591-26.359-15.591-2.93 0-8.271.171-13.699.43-6.889.345-10.42.603-15.678.947v4.051c7.408 0 8.961 1.377 8.961 7.837v30.064c0 6.287-1.725 7.58-8.961 7.58v4.051h32.65v-4.051c-6.721 0-9.219-.774-9.219-7.15V59.937h4.566c4.135 3.618 9.217 12.748 14.816 18.347 3.705 3.705 8.527 5.168 16.279 5.168h10.598v-4.048zM414.148 29.096v4.051c6.115 0 8.613.601 8.613 7.922v29.635c0 6.116-1.379 7.925-9.217 7.925v4.051h52.547l1.119-14.3h-4.049c-1.291 5.686-3.271 8.957-10.768 8.957h-9.99c-4.652 0-5.168-.343-5.168-4.91V58.558h11.197c6.289 0 7.666 1.292 7.666 6.118h4.051V46.67H456.1c0 5.253-1.635 6.546-7.752 6.546h-11.111V34.438h16.881c4.223 0 5.514 1.637 6.291 7.495h4.047l-.775-12.836h-49.533zM407 82.68v-4.051c-7.322 0-7.84-2.928-7.84-8.268V41.415c0-6.031.947-8.268 7.84-8.268v-4.051h-29.719v4.051c6.201 0 7.406 2.236 7.406 8.268v29.461c0 5.515-1.291 7.753-7.406 7.753v4.051H407zm-33.252-53.584h-23.775v4.051c5.34-.175 7.582.946 7.582 3.186 0 1.464-.605 3.014-3.018 8.44l-9.908 22.142-11.455-25.069c-1.121-2.499-1.639-4.136-1.639-5.254 0-2.239 2.416-3.444 8.789-3.444v-4.051h-32.477v4.051c5.771 0 6.719.772 11.199 10.768l18.09 40.142h6.287l18.693-41.263c3.791-8.441 5.344-9.646 11.631-9.646v-4.053zm-83.389 29.806h-15.074l7.15-20.416 7.924 20.416zm29.118 19.727c-4.996-.258-6.889-2.152-9.994-10.165l-15.676-40.745h-15.506l.775 1.896-13.439 38.591c-3.101 8.958-3.876 10.423-10.25 10.423v4.051h22.139v-4.051c-4.739 0-7.581-.861-7.581-3.186 0-.69.689-3.102 1.895-6.634l1.551-4.567h18.951l1.982 5.085c1.205 3.186 1.809 5.253 1.809 6.374 0 2.241-2.068 2.928-7.924 2.928v4.051h31.268v-4.051zm-66.761-49.533h-24.12v4.051c4.135 0 5.686.688 5.686 2.325 0 1.379-.604 2.325-3.62 5.34l-7.147 7.065-6.72-8.701c-2.153-2.758-2.24-2.93-2.24-3.704 0-1.724 1.895-2.325 6.374-2.325v-4.051h-34.457v4.051c6.547.084 8.787 1.464 13.783 7.665l13.353 16.541-14.903 14.126c-5.771 5.428-8.444 6.893-13.267 7.15v4.051h23.519v-4.051c-4.309.088-5.944-.774-5.944-2.498 0-.602.429-1.465 2.153-3.187l11.63-11.458 8.442 10.596c2.153 2.67 2.412 3.531 2.412 4.394 0 1.637-1.034 2.152-5.772 2.152v4.051h32.992v-4.051c-4.91 0-8.355-2.067-12.577-7.322l-15.42-19.297 11.372-10.854c7.58-7.237 10.079-8.096 14.472-8.009v-4.05z"/><path fill="#9EA2A2" d="M165.379 29.017h4.312v92.594h-4.312z"/><g><path fill="#9EA2A2" d="M71.439 119.562l11.616-17.429 11.621 17.429-11.619 6.699-11.618-6.699zm0-89.121l11.618-6.703 11.619 6.702-11.62 17.43-11.617-17.429zM8.137 15.391l18.519 16.907L54.47 75.001l-27.625 42.412-18.532 17.196h149.468l-18.501-17.18L111.644 75l27.759-42.623 18.499-16.986H8.137z"/><path fill="#FFF" d="M88.547 126.401l-5.49 3.168-5.489-3.168-10.206-5.887 15.695-23.543 15.696 23.543-10.206 5.887zM77.567 23.599l5.489-3.167 5.49 3.167 10.207 5.887-15.696 23.546-15.695-23.546 10.205-5.887zm59.503 95.685l-28.843-44.283 28.98-44.496 13.343-12.25H15.521L28.857 30.43 57.89 75.003l-28.839 44.269-13.441 12.475h134.88l-13.42-12.463z"/><path fill="#0C2340" d="M104.809 75.001l30.192-46.357 8.196-7.526H89.978l12.853 7.415-19.774 29.66-19.772-29.66 12.851-7.415H22.904l8.154 7.444 30.248 46.439-30.048 46.131-8.354 7.751h53.232l-12.851-7.415 19.772-29.659 19.774 29.659-12.853 7.415h53.219l-8.332-7.738z"/></g></svg>
